M48
; DRILL file {KiCad 9.0.3} date 2025-07-21T16:07:54+0200
; FORMAT={-:-/ absolute / metric / decimal}
; #@! TF.CreationDate,2025-07-21T16:07:54+02:00
; #@! TF.GenerationSoftware,Kicad,Pcbnew,9.0.3
; #@! TF.FileFunction,Plated,1,2,PTH
FMAT,2
METRIC
; #@! TA.AperFunction,Plated,PTH,ViaDrill
T1C0.400
; #@! TA.AperFunction,Plated,PTH,ComponentDrill
T2C0.600
; #@! TA.AperFunction,Plated,PTH,ComponentDrill
T3C0.700
; #@! TA.AperFunction,Plated,PTH,ComponentDrill
T4C0.800
; #@! TA.AperFunction,Plated,PTH,ComponentDrill
T5C0.900
; #@! TA.AperFunction,Plated,PTH,ComponentDrill
T6C1.000
; #@! TA.AperFunction,Plated,PTH,ComponentDrill
T7C1.200
; #@! TA.AperFunction,Plated,PTH,ComponentDrill
T8C1.300
%
G90
G05
T1
X119.85Y-95.085
X124.93Y-95.085
X130.645Y-81.115
X134.455Y-79.845
X138.9Y-79.21
X143.345Y-78.575
X147.79Y-77.94
X152.235Y-77.305
X156.68Y-76.67
X163.03Y-81.75
X164.935Y-75.945
X166.205Y-63.97
X166.205Y-71.59
X167.475Y-63.335
X167.475Y-70.32
X171.92Y-84.925
X174.46Y-63.335
X175.73Y-63.335
X182.715Y-88.735
X184.62Y-88.735
X185.255Y-62.065
X186.55Y-62.04
X187.16Y-84.925
T2
X70.94Y-80.44
X72.24Y-75.44
T3
X119.85Y-72.86
X119.85Y-75.4
X124.93Y-72.86
X124.93Y-75.4
X124.93Y-84.29
X124.93Y-86.83
X130.01Y-72.86
X130.01Y-75.4
X130.01Y-84.29
X130.01Y-86.83
X135.09Y-72.86
X135.09Y-75.4
X135.09Y-84.29
X135.09Y-86.83
X140.17Y-72.86
X140.17Y-75.4
X140.17Y-84.29
X140.17Y-86.83
X145.25Y-72.86
X145.25Y-75.4
X145.25Y-84.29
X145.25Y-86.83
X150.33Y-72.86
X150.33Y-75.4
X150.33Y-84.29
X150.33Y-86.83
X155.41Y-72.86
X155.41Y-75.4
X155.41Y-84.29
X155.41Y-86.83
X160.49Y-72.86
X160.49Y-75.4
X160.49Y-84.29
X160.49Y-86.83
X185.255Y-57.62
X185.255Y-60.16
X189.065Y-86.83
X191.605Y-86.83
X194.145Y-86.83
X196.685Y-86.83
T4
X71.59Y-96.99
X71.9Y-90.64
X75.4Y-75.44
X75.4Y-80.44
X75.4Y-90.64
X76.59Y-96.99
X82.19Y-109.0
X85.0Y-69.5
X85.0Y-73.0
X89.81Y-109.0
X96.19Y-109.0
X97.0Y-82.0
X102.0Y-82.0
X103.81Y-109.0
X105.0Y-69.5
X105.0Y-73.0
X110.19Y-109.0
X117.81Y-109.0
X119.85Y-92.545
X119.85Y-100.165
X122.39Y-92.545
X122.39Y-100.165
X124.19Y-109.0
X124.93Y-92.545
X124.93Y-100.165
X127.47Y-92.545
X127.47Y-100.165
X130.01Y-92.545
X130.01Y-100.165
X131.81Y-109.0
X132.55Y-92.545
X132.55Y-100.165
X135.09Y-92.545
X135.09Y-100.165
X137.63Y-92.545
X137.63Y-100.165
X138.19Y-109.0
X142.71Y-92.545
X142.71Y-100.165
X145.25Y-92.545
X145.25Y-100.165
X145.81Y-109.0
X147.79Y-92.545
X147.79Y-100.165
X150.33Y-92.545
X150.33Y-100.165
X152.19Y-109.0
X152.87Y-92.545
X152.87Y-100.165
X155.41Y-92.545
X155.41Y-100.165
X157.95Y-92.545
X157.95Y-100.165
X159.81Y-109.0
X160.49Y-92.545
X160.49Y-100.165
X166.19Y-109.0
X173.81Y-109.0
X180.19Y-109.0
X187.81Y-109.0
X190.335Y-57.7
X190.335Y-62.7
X193.51Y-99.53
X193.51Y-103.03
T5
X118.58Y-69.05
X121.12Y-69.05
X123.66Y-69.05
X126.2Y-69.05
X128.74Y-69.05
X131.28Y-69.05
X133.82Y-69.05
X136.36Y-69.05
X138.9Y-69.05
X141.44Y-69.05
X143.98Y-69.05
X146.52Y-69.05
X149.06Y-69.05
X151.6Y-69.05
X154.14Y-69.05
X156.68Y-69.05
X159.22Y-69.05
X161.76Y-69.05
T6
X46.0Y-75.4
X52.0Y-109.0
X54.0Y-115.5
X54.0Y-120.5
X58.0Y-109.0
X64.0Y-75.4
X64.0Y-117.0
X64.0Y-122.0
X70.32Y-69.05
X72.86Y-69.05
X75.4Y-69.05
X77.5Y-55.0
X170.65Y-91.91
X170.65Y-94.45
X173.19Y-91.91
X173.19Y-94.45
X175.73Y-91.91
X175.73Y-94.45
X178.27Y-91.91
X178.27Y-94.45
X180.81Y-91.91
X180.81Y-94.45
X185.89Y-91.91
X185.89Y-94.45
X188.43Y-91.91
X188.43Y-94.45
X190.97Y-91.91
X190.97Y-94.45
X193.51Y-91.91
X193.51Y-94.45
T7
X61.5Y-55.0
X65.0Y-55.0
X65.5Y-145.0
X68.5Y-55.0
X69.0Y-145.0
X72.5Y-145.0
X82.5Y-145.0
X86.0Y-145.0
X86.5Y-55.0
X89.5Y-145.0
X90.0Y-55.0
X93.5Y-55.0
X96.5Y-145.0
X99.0Y-55.0
X100.0Y-145.0
X102.5Y-55.0
X103.5Y-145.0
X106.0Y-55.0
X110.5Y-145.0
X111.5Y-55.0
X114.0Y-145.0
X115.0Y-55.0
X117.5Y-145.0
X118.5Y-55.0
X124.0Y-55.0
X124.5Y-145.0
X127.5Y-55.0
X128.0Y-145.0
X131.0Y-55.0
X131.5Y-145.0
X136.5Y-55.0
X138.5Y-145.0
X140.0Y-55.0
X142.0Y-145.0
X143.5Y-55.0
X145.5Y-145.0
X149.0Y-55.0
X152.5Y-55.0
X152.5Y-145.0
X156.0Y-55.0
X156.0Y-145.0
X159.5Y-145.0
X161.5Y-55.0
X165.0Y-55.0
X166.5Y-145.0
X168.5Y-55.0
X170.0Y-145.0
X173.5Y-145.0
X174.0Y-55.0
X177.5Y-55.0
X180.5Y-145.0
X181.0Y-55.0
X184.0Y-145.0
X187.5Y-145.0
T8
X46.0Y-132.0
X56.0Y-132.0
X64.0Y-132.0
X74.0Y-132.0
X82.25Y-112.9
X82.25Y-129.4
X82.25Y-136.4
X89.75Y-112.9
X89.75Y-132.9
X94.99Y-69.82
X94.99Y-73.32
X96.25Y-112.9
X96.25Y-129.4
X96.25Y-136.4
X103.75Y-112.9
X103.75Y-132.9
X110.25Y-112.9
X110.25Y-129.4
X110.25Y-136.4
X117.75Y-112.9
X117.75Y-132.9
X124.25Y-112.9
X124.25Y-129.4
X124.25Y-136.4
X131.75Y-112.9
X131.75Y-132.9
X138.25Y-112.9
X138.25Y-129.4
X138.25Y-136.4
X145.75Y-112.9
X145.75Y-132.9
X152.25Y-112.9
X152.25Y-129.4
X152.25Y-136.4
X159.75Y-112.9
X159.75Y-132.9
X166.25Y-112.9
X166.25Y-129.4
X166.25Y-136.4
X173.75Y-112.9
X173.75Y-132.9
X180.25Y-112.9
X180.25Y-129.4
X180.25Y-136.4
X187.75Y-112.9
X187.75Y-132.9
M30
