%TF.GenerationSoftware,KiCad,Pcbnew,9.0.3*%
%TF.CreationDate,2025-07-21T16:07:52+02:00*%
%TF.ProjectId,lokho1-z,6c6f6b68-6f31-42d7-9a2e-6b696361645f,rev?*%
%TF.SameCoordinates,Original*%
%TF.FileFunction,Paste,Top*%
%TF.FilePolarity,Positive*%
%FSLAX46Y46*%
G04 Gerber Fmt 4.6, Leading zero omitted, Abs format (unit mm)*
G04 Created by KiCad (PCBNEW 9.0.3) date 2025-07-21 16:07:52*
%MOMM*%
%LPD*%
G01*
G04 APERTURE LIST*
G04 Aperture macros list*
%AMRoundRect*
0 Rectangle with rounded corners*
0 $1 Rounding radius*
0 $2 $3 $4 $5 $6 $7 $8 $9 X,Y pos of 4 corners*
0 Add a 4 corners polygon primitive as box body*
4,1,4,$2,$3,$4,$5,$6,$7,$8,$9,$2,$3,0*
0 Add four circle primitives for the rounded corners*
1,1,$1+$1,$2,$3*
1,1,$1+$1,$4,$5*
1,1,$1+$1,$6,$7*
1,1,$1+$1,$8,$9*
0 Add four rect primitives between the rounded corners*
20,1,$1+$1,$2,$3,$4,$5,0*
20,1,$1+$1,$4,$5,$6,$7,0*
20,1,$1+$1,$6,$7,$8,$9,0*
20,1,$1+$1,$8,$9,$2,$3,0*%
G04 Aperture macros list end*
%ADD10R,0.900000X1.500000*%
%ADD11R,0.800000X0.800000*%
%ADD12RoundRect,0.150000X-0.512500X-0.150000X0.512500X-0.150000X0.512500X0.150000X-0.512500X0.150000X0*%
G04 APERTURE END LIST*
D10*
%TO.C,U1*%
X187820000Y-65380000D03*
X186550000Y-65380000D03*
X185280000Y-65380000D03*
X184010000Y-65380000D03*
X182740000Y-65380000D03*
X181470000Y-65380000D03*
X180200000Y-65380000D03*
X178930000Y-65380000D03*
X177660000Y-65380000D03*
X176390000Y-65380000D03*
X175120000Y-65380000D03*
X173850000Y-65380000D03*
X172580000Y-65380000D03*
X171310000Y-65380000D03*
X171310000Y-82880000D03*
X172580000Y-82880000D03*
X173850000Y-82880000D03*
X175120000Y-82880000D03*
X176390000Y-82880000D03*
X177660000Y-82880000D03*
X178930000Y-82880000D03*
X180200000Y-82880000D03*
X181470000Y-82880000D03*
X182740000Y-82880000D03*
X184010000Y-82880000D03*
X185280000Y-82880000D03*
X186550000Y-82880000D03*
X187820000Y-82880000D03*
D11*
X183350000Y-71375000D03*
X182100000Y-71375000D03*
X180850000Y-71375000D03*
X183350000Y-72625000D03*
X182100000Y-72625000D03*
X180850000Y-72625000D03*
X183350000Y-73875000D03*
X182100000Y-73875000D03*
X180850000Y-73875000D03*
%TD*%
D12*
%TO.C,U2*%
X89635000Y-79530000D03*
X89635000Y-80480000D03*
X89635000Y-81430000D03*
X91910000Y-81430000D03*
X91910000Y-80480000D03*
X91910000Y-79530000D03*
%TD*%
M02*
