%TF.GenerationSoftware,KiCad,Pcbnew,9.0.3*%
%TF.CreationDate,2025-07-21T16:07:52+02:00*%
%TF.ProjectId,lokho1-z,6c6f6b68-6f31-42d7-9a2e-6b696361645f,rev?*%
%TF.SameCoordinates,Original*%
%TF.FileFunction,Copper,L1,Top*%
%TF.FilePolarity,Positive*%
%FSLAX46Y46*%
G04 Gerber Fmt 4.6, Leading zero omitted, Abs format (unit mm)*
G04 Created by KiCad (PCBNEW 9.0.3) date 2025-07-21 16:07:52*
%MOMM*%
%LPD*%
G01*
G04 APERTURE LIST*
G04 Aperture macros list*
%AMRoundRect*
0 Rectangle with rounded corners*
0 $1 Rounding radius*
0 $2 $3 $4 $5 $6 $7 $8 $9 X,Y pos of 4 corners*
0 Add a 4 corners polygon primitive as box body*
4,1,4,$2,$3,$4,$5,$6,$7,$8,$9,$2,$3,0*
0 Add four circle primitives for the rounded corners*
1,1,$1+$1,$2,$3*
1,1,$1+$1,$4,$5*
1,1,$1+$1,$6,$7*
1,1,$1+$1,$8,$9*
0 Add four rect primitives between the rounded corners*
20,1,$1+$1,$2,$3,$4,$5,0*
20,1,$1+$1,$4,$5,$6,$7,0*
20,1,$1+$1,$6,$7,$8,$9,0*
20,1,$1+$1,$8,$9,$2,$3,0*%
G04 Aperture macros list end*
%TA.AperFunction,SMDPad,CuDef*%
%ADD10R,0.900000X1.500000*%
%TD*%
%TA.AperFunction,SMDPad,CuDef*%
%ADD11R,0.800000X0.800000*%
%TD*%
%TA.AperFunction,ComponentPad*%
%ADD12C,1.400000*%
%TD*%
%TA.AperFunction,ComponentPad*%
%ADD13C,2.000000*%
%TD*%
%TA.AperFunction,ComponentPad*%
%ADD14C,1.600000*%
%TD*%
%TA.AperFunction,ComponentPad*%
%ADD15C,2.300000*%
%TD*%
%TA.AperFunction,ComponentPad*%
%ADD16RoundRect,0.250000X-0.550000X-0.550000X0.550000X-0.550000X0.550000X0.550000X-0.550000X0.550000X0*%
%TD*%
%TA.AperFunction,ComponentPad*%
%ADD17C,2.400000*%
%TD*%
%TA.AperFunction,ComponentPad*%
%ADD18RoundRect,0.250001X-0.949999X-0.949999X0.949999X-0.949999X0.949999X0.949999X-0.949999X0.949999X0*%
%TD*%
%TA.AperFunction,ComponentPad*%
%ADD19C,2.500000*%
%TD*%
%TA.AperFunction,ComponentPad*%
%ADD20C,1.700000*%
%TD*%
%TA.AperFunction,ComponentPad*%
%ADD21R,1.700000X1.700000*%
%TD*%
%TA.AperFunction,ComponentPad*%
%ADD22RoundRect,0.250000X0.550000X0.550000X-0.550000X0.550000X-0.550000X-0.550000X0.550000X-0.550000X0*%
%TD*%
%TA.AperFunction,ComponentPad*%
%ADD23RoundRect,0.250000X0.550000X-0.550000X0.550000X0.550000X-0.550000X0.550000X-0.550000X-0.550000X0*%
%TD*%
%TA.AperFunction,ComponentPad*%
%ADD24R,1.800000X1.800000*%
%TD*%
%TA.AperFunction,ComponentPad*%
%ADD25C,1.800000*%
%TD*%
%TA.AperFunction,ComponentPad*%
%ADD26RoundRect,0.250000X-0.550000X0.550000X-0.550000X-0.550000X0.550000X-0.550000X0.550000X0.550000X0*%
%TD*%
%TA.AperFunction,SMDPad,CuDef*%
%ADD27RoundRect,0.150000X-0.512500X-0.150000X0.512500X-0.150000X0.512500X0.150000X-0.512500X0.150000X0*%
%TD*%
%TA.AperFunction,ComponentPad*%
%ADD28C,2.600000*%
%TD*%
%TA.AperFunction,ComponentPad*%
%ADD29RoundRect,0.250001X0.949999X0.949999X-0.949999X0.949999X-0.949999X-0.949999X0.949999X-0.949999X0*%
%TD*%
%TA.AperFunction,ComponentPad*%
%ADD30O,2.000000X1.700000*%
%TD*%
%TA.AperFunction,ComponentPad*%
%ADD31RoundRect,0.250000X0.750000X-0.600000X0.750000X0.600000X-0.750000X0.600000X-0.750000X-0.600000X0*%
%TD*%
%TA.AperFunction,ViaPad*%
%ADD32C,0.700000*%
%TD*%
%TA.AperFunction,Conductor*%
%ADD33C,0.350000*%
%TD*%
%TA.AperFunction,Conductor*%
%ADD34C,0.700000*%
%TD*%
%TA.AperFunction,Conductor*%
%ADD35C,1.400000*%
%TD*%
G04 APERTURE END LIST*
D10*
%TO.P,U1,1,GND*%
%TO.N,GND*%
X187820000Y-65380000D03*
%TO.P,U1,2,3V3*%
%TO.N,+3V3*%
X186550000Y-65380000D03*
%TO.P,U1,3,EN/CHIP_PU*%
%TO.N,EN*%
X185280000Y-65380000D03*
%TO.P,U1,4,MTMS/GPIO4/ADC1_CH4*%
%TO.N,GPIO4*%
X184010000Y-65380000D03*
%TO.P,U1,5,MTDI/GPIO5/ADC1_CH5*%
%TO.N,GPIO5*%
X182740000Y-65380000D03*
%TO.P,U1,6,MTCK/GPIO6/ADC1_CH6*%
%TO.N,GPIO6*%
X181470000Y-65380000D03*
%TO.P,U1,7,MTDO/GPIO7*%
%TO.N,GPIO7*%
X180200000Y-65380000D03*
%TO.P,U1,8,GPIO0/ADC1_CH0/XTAL_32K_P*%
%TO.N,GPIO0*%
X178930000Y-65380000D03*
%TO.P,U1,9,GPIO1/ADC1_CH1/XTAL_32K_N*%
%TO.N,GPIO1*%
X177660000Y-65380000D03*
%TO.P,U1,10,GPIO8*%
%TO.N,GPIO8*%
X176390000Y-65380000D03*
%TO.P,U1,11,GPIO10*%
%TO.N,GPIO10*%
X175120000Y-65380000D03*
%TO.P,U1,12,GPIO11*%
%TO.N,GPIO11*%
X173850000Y-65380000D03*
%TO.P,U1,13,GPIO12/USB_D-*%
%TO.N,USBD-*%
X172580000Y-65380000D03*
%TO.P,U1,14,GPIO13/USB_D+*%
%TO.N,USBD+*%
X171310000Y-65380000D03*
%TO.P,U1,15,GPIO9*%
%TO.N,GPIO9*%
X171310000Y-82880000D03*
%TO.P,U1,16,GPIO18*%
%TO.N,GPIO18*%
X172580000Y-82880000D03*
%TO.P,U1,17,GPIO19*%
%TO.N,GPIO19*%
X173850000Y-82880000D03*
%TO.P,U1,18,GPIO20*%
%TO.N,GPIO20*%
X175120000Y-82880000D03*
%TO.P,U1,19,GPIO21*%
%TO.N,GPIO21*%
X176390000Y-82880000D03*
%TO.P,U1,20,GPIO22*%
%TO.N,GPIO22*%
X177660000Y-82880000D03*
%TO.P,U1,21,GPIO23*%
%TO.N,GPIO23*%
X178930000Y-82880000D03*
%TO.P,U1,22,NC*%
%TO.N,unconnected-(U1-NC-Pad22)*%
X180200000Y-82880000D03*
%TO.P,U1,23,GPIO15*%
%TO.N,GPIO15*%
X181470000Y-82880000D03*
%TO.P,U1,24,U0RXD/GPIO17*%
%TO.N,U0Rxd*%
X182740000Y-82880000D03*
%TO.P,U1,25,U0TXD/GPIO16*%
%TO.N,U0TxD*%
X184010000Y-82880000D03*
%TO.P,U1,26,GPIO3/ADC1_CH3*%
%TO.N,GPIO3*%
X185280000Y-82880000D03*
%TO.P,U1,27,GPIO2/ADC1_CH2*%
%TO.N,GPIO2*%
X186550000Y-82880000D03*
%TO.P,U1,28,GND*%
%TO.N,GND*%
X187820000Y-82880000D03*
D11*
%TO.P,U1,29,GND*%
X183350000Y-71375000D03*
X182100000Y-71375000D03*
X180850000Y-71375000D03*
X183350000Y-72625000D03*
X182100000Y-72625000D03*
X180850000Y-72625000D03*
X183350000Y-73875000D03*
X182100000Y-73875000D03*
X180850000Y-73875000D03*
%TD*%
D12*
%TO.P,R4,2*%
%TO.N,EN*%
X185255000Y-60160000D03*
%TO.P,R4,1*%
%TO.N,+3V3*%
X185255000Y-57620000D03*
%TD*%
D13*
%TO.P,RV3,1*%
%TO.N,NEUT*%
X54000000Y-120500000D03*
%TO.P,RV3,2*%
%TO.N,Earth_Protective*%
X64000000Y-122000000D03*
%TD*%
D14*
%TO.P,RV2,2*%
%TO.N,GND*%
X70940000Y-80440000D03*
%TO.P,RV2,1*%
%TO.N,+VDC*%
X72240000Y-75440000D03*
%TD*%
D13*
%TO.P,RV1,1*%
%TO.N,AC*%
X54000000Y-115500000D03*
%TO.P,RV1,2*%
%TO.N,Earth_Protective*%
X64000000Y-117000000D03*
%TD*%
D14*
%TO.P,F3,2*%
%TO.N,+VDC*%
X75400000Y-75440000D03*
%TO.P,F3,1*%
%TO.N,Net-(PS1-+Vout)*%
X75400000Y-80440000D03*
%TD*%
D15*
%TO.P,F2,1*%
%TO.N,Net-(J21-Pin_1)*%
X46000000Y-132000000D03*
%TO.P,F2,2*%
%TO.N,AC*%
X56000000Y-132000000D03*
%TD*%
%TO.P,F1,1*%
%TO.N,Net-(J21-Pin_3)*%
X74000000Y-132000000D03*
%TO.P,F1,2*%
%TO.N,NEUT*%
X64000000Y-132000000D03*
%TD*%
D14*
%TO.P,D8,2,A*%
%TO.N,Net-(D8-A)*%
X117810000Y-109000000D03*
D16*
%TO.P,D8,1,K*%
%TO.N,+12V*%
X110190000Y-109000000D03*
%TD*%
%TO.P,D6,1,K*%
%TO.N,+12V*%
X82190000Y-109000000D03*
D14*
%TO.P,D6,2,A*%
%TO.N,Net-(D6-A)*%
X89810000Y-109000000D03*
%TD*%
%TO.P,D16,2,A*%
%TO.N,Net-(D16-A)*%
X173810000Y-109000000D03*
D16*
%TO.P,D16,1,K*%
%TO.N,+12V*%
X166190000Y-109000000D03*
%TD*%
D14*
%TO.P,D12,2,A*%
%TO.N,Net-(D12-A)*%
X145810000Y-109000000D03*
D16*
%TO.P,D12,1,K*%
%TO.N,+12V*%
X138190000Y-109000000D03*
%TD*%
D14*
%TO.P,D9,2,A*%
%TO.N,Net-(D9-A)*%
X131810000Y-109000000D03*
D16*
%TO.P,D9,1,K*%
%TO.N,+12V*%
X124190000Y-109000000D03*
%TD*%
D14*
%TO.P,D13,2,A*%
%TO.N,Net-(D13-A)*%
X159810000Y-109000000D03*
D16*
%TO.P,D13,1,K*%
%TO.N,+12V*%
X152190000Y-109000000D03*
%TD*%
D14*
%TO.P,D7,2,A*%
%TO.N,Net-(D7-A)*%
X103810000Y-109000000D03*
D16*
%TO.P,D7,1,K*%
%TO.N,+12V*%
X96190000Y-109000000D03*
%TD*%
D17*
%TO.P,J9,3,Pin_3*%
%TO.N,Net-(J9-Pin_3)*%
X159500000Y-145000000D03*
%TO.P,J9,2,Pin_2*%
%TO.N,Net-(J9-Pin_2)*%
X156000000Y-145000000D03*
D18*
%TO.P,J9,1,Pin_1*%
%TO.N,Net-(J9-Pin_1)*%
X152500000Y-145000000D03*
%TD*%
D17*
%TO.P,J6,3,Pin_3*%
%TO.N,Net-(J6-Pin_3)*%
X117500000Y-145000000D03*
%TO.P,J6,2,Pin_2*%
%TO.N,Net-(J6-Pin_2)*%
X114000000Y-145000000D03*
D18*
%TO.P,J6,1,Pin_1*%
%TO.N,Net-(J6-Pin_1)*%
X110500000Y-145000000D03*
%TD*%
D17*
%TO.P,J8,3,Pin_3*%
%TO.N,Net-(J8-Pin_3)*%
X145500000Y-145000000D03*
%TO.P,J8,2,Pin_2*%
%TO.N,Net-(J8-Pin_2)*%
X142000000Y-145000000D03*
D18*
%TO.P,J8,1,Pin_1*%
%TO.N,Net-(J8-Pin_1)*%
X138500000Y-145000000D03*
%TD*%
D17*
%TO.P,J5,3,Pin_3*%
%TO.N,Net-(J5-Pin_3)*%
X103500000Y-145000000D03*
%TO.P,J5,2,Pin_2*%
%TO.N,Net-(J5-Pin_2)*%
X100000000Y-145000000D03*
D18*
%TO.P,J5,1,Pin_1*%
%TO.N,Net-(J5-Pin_1)*%
X96500000Y-145000000D03*
%TD*%
D17*
%TO.P,J4,3,Pin_3*%
%TO.N,Net-(J4-Pin_3)*%
X89500000Y-145000000D03*
%TO.P,J4,2,Pin_2*%
%TO.N,Net-(J4-Pin_2)*%
X86000000Y-145000000D03*
D18*
%TO.P,J4,1,Pin_1*%
%TO.N,Net-(J4-Pin_1)*%
X82500000Y-145000000D03*
%TD*%
D17*
%TO.P,J7,3,Pin_3*%
%TO.N,Net-(J7-Pin_3)*%
X131500000Y-145000000D03*
%TO.P,J7,2,Pin_2*%
%TO.N,Net-(J7-Pin_2)*%
X128000000Y-145000000D03*
D18*
%TO.P,J7,1,Pin_1*%
%TO.N,Net-(J7-Pin_1)*%
X124500000Y-145000000D03*
%TD*%
D17*
%TO.P,J10,3,Pin_3*%
%TO.N,Net-(J10-Pin_3)*%
X173500000Y-145000000D03*
%TO.P,J10,2,Pin_2*%
%TO.N,Net-(J10-Pin_2)*%
X170000000Y-145000000D03*
D18*
%TO.P,J10,1,Pin_1*%
%TO.N,Net-(J10-Pin_1)*%
X166500000Y-145000000D03*
%TD*%
D19*
%TO.P,RL5,A2*%
%TO.N,Net-(D12-A)*%
X145750000Y-112900000D03*
%TO.P,RL5,A1*%
%TO.N,+12V*%
X138250000Y-112900000D03*
%TO.P,RL5,14*%
%TO.N,Net-(J8-Pin_1)*%
X138250000Y-136400000D03*
%TO.P,RL5,12*%
%TO.N,Net-(J8-Pin_2)*%
X138250000Y-129400000D03*
%TO.P,RL5,11*%
%TO.N,Net-(J8-Pin_3)*%
X145750000Y-132900000D03*
%TD*%
%TO.P,RL7,A2*%
%TO.N,Net-(D16-A)*%
X173750000Y-112900000D03*
%TO.P,RL7,A1*%
%TO.N,+12V*%
X166250000Y-112900000D03*
%TO.P,RL7,14*%
%TO.N,Net-(J10-Pin_1)*%
X166250000Y-136400000D03*
%TO.P,RL7,12*%
%TO.N,Net-(J10-Pin_2)*%
X166250000Y-129400000D03*
%TO.P,RL7,11*%
%TO.N,Net-(J10-Pin_3)*%
X173750000Y-132900000D03*
%TD*%
%TO.P,RL2,A2*%
%TO.N,Net-(D7-A)*%
X103750000Y-112900000D03*
%TO.P,RL2,A1*%
%TO.N,+12V*%
X96250000Y-112900000D03*
%TO.P,RL2,14*%
%TO.N,Net-(J5-Pin_1)*%
X96250000Y-136400000D03*
%TO.P,RL2,12*%
%TO.N,Net-(J5-Pin_2)*%
X96250000Y-129400000D03*
%TO.P,RL2,11*%
%TO.N,Net-(J5-Pin_3)*%
X103750000Y-132900000D03*
%TD*%
%TO.P,RL3,A2*%
%TO.N,Net-(D8-A)*%
X117750000Y-112900000D03*
%TO.P,RL3,A1*%
%TO.N,+12V*%
X110250000Y-112900000D03*
%TO.P,RL3,14*%
%TO.N,Net-(J6-Pin_1)*%
X110250000Y-136400000D03*
%TO.P,RL3,12*%
%TO.N,Net-(J6-Pin_2)*%
X110250000Y-129400000D03*
%TO.P,RL3,11*%
%TO.N,Net-(J6-Pin_3)*%
X117750000Y-132900000D03*
%TD*%
%TO.P,RL1,A2*%
%TO.N,Net-(D6-A)*%
X89750000Y-112900000D03*
%TO.P,RL1,A1*%
%TO.N,+12V*%
X82250000Y-112900000D03*
%TO.P,RL1,14*%
%TO.N,Net-(J4-Pin_1)*%
X82250000Y-136400000D03*
%TO.P,RL1,12*%
%TO.N,Net-(J4-Pin_2)*%
X82250000Y-129400000D03*
%TO.P,RL1,11*%
%TO.N,Net-(J4-Pin_3)*%
X89750000Y-132900000D03*
%TD*%
%TO.P,RL4,A2*%
%TO.N,Net-(D9-A)*%
X131750000Y-112900000D03*
%TO.P,RL4,A1*%
%TO.N,+12V*%
X124250000Y-112900000D03*
%TO.P,RL4,14*%
%TO.N,Net-(J7-Pin_1)*%
X124250000Y-136400000D03*
%TO.P,RL4,12*%
%TO.N,Net-(J7-Pin_2)*%
X124250000Y-129400000D03*
%TO.P,RL4,11*%
%TO.N,Net-(J7-Pin_3)*%
X131750000Y-132900000D03*
%TD*%
%TO.P,RL6,A2*%
%TO.N,Net-(D13-A)*%
X159750000Y-112900000D03*
%TO.P,RL6,A1*%
%TO.N,+12V*%
X152250000Y-112900000D03*
%TO.P,RL6,14*%
%TO.N,Net-(J9-Pin_1)*%
X152250000Y-136400000D03*
%TO.P,RL6,12*%
%TO.N,Net-(J9-Pin_2)*%
X152250000Y-129400000D03*
%TO.P,RL6,11*%
%TO.N,Net-(J9-Pin_3)*%
X159750000Y-132900000D03*
%TD*%
D20*
%TO.P,J22,3,Pin_3*%
%TO.N,+12V*%
X70320000Y-69050000D03*
%TO.P,J22,2,Pin_2*%
%TO.N,+VDC*%
X72860000Y-69050000D03*
D21*
%TO.P,J22,1,Pin_1*%
%TO.N,+3V3*%
X75400000Y-69050000D03*
%TD*%
D18*
%TO.P,J21,1,Pin_1*%
%TO.N,Net-(J21-Pin_1)*%
X65500000Y-145000000D03*
D17*
%TO.P,J21,2,Pin_2*%
%TO.N,Earth_Protective*%
X69000000Y-145000000D03*
%TO.P,J21,3,Pin_3*%
%TO.N,Net-(J21-Pin_3)*%
X72500000Y-145000000D03*
%TD*%
D14*
%TO.P,C7,2*%
%TO.N,Net-(PS1-+Vout)*%
X76590000Y-96990000D03*
%TO.P,C7,1*%
%TO.N,GND*%
X71590000Y-96990000D03*
%TD*%
D22*
%TO.P,C6,1*%
%TO.N,Net-(PS1-+Vout)*%
X75400000Y-90640000D03*
D14*
%TO.P,C6,2*%
%TO.N,GND*%
X71900000Y-90640000D03*
%TD*%
%TO.P,C5,1*%
%TO.N,GND*%
X190335000Y-57700000D03*
%TO.P,C5,2*%
%TO.N,+3V3*%
X190335000Y-62700000D03*
%TD*%
%TO.P,C2,1*%
%TO.N,Net-(U2-BST)*%
X102000000Y-82000000D03*
%TO.P,C2,2*%
%TO.N,Net-(U2-SW)*%
X97000000Y-82000000D03*
%TD*%
D23*
%TO.P,C4,1*%
%TO.N,+3V3*%
X193510000Y-103030000D03*
D14*
%TO.P,C4,2*%
%TO.N,GND*%
X193510000Y-99530000D03*
%TD*%
D12*
%TO.P,R12,1*%
%TO.N,GPIO19*%
X140170000Y-75400000D03*
%TO.P,R12,2*%
%TO.N,Net-(D5-A)*%
X140170000Y-72860000D03*
%TD*%
%TO.P,R8,1*%
%TO.N,GPIO19*%
X140170000Y-84290000D03*
%TO.P,R8,2*%
%TO.N,Net-(R8-Pad2)*%
X140170000Y-86830000D03*
%TD*%
D24*
%TO.P,D4,1,K*%
%TO.N,GND*%
X133820000Y-69050000D03*
D25*
%TO.P,D4,2,A*%
%TO.N,Net-(D4-A)*%
X136360000Y-69050000D03*
%TD*%
D21*
%TO.P,J3,1,Pin_1*%
%TO.N,EN*%
X180810000Y-91910000D03*
D20*
%TO.P,J3,2,Pin_2*%
%TO.N,unconnected-(J3-Pin_2-Pad2)*%
X180810000Y-94450000D03*
%TO.P,J3,3,Pin_3*%
%TO.N,U0TxD*%
X178270000Y-91910000D03*
%TO.P,J3,4,Pin_4*%
%TO.N,unconnected-(J3-Pin_4-Pad4)*%
X178270000Y-94450000D03*
%TO.P,J3,5,Pin_5*%
%TO.N,U0Rxd*%
X175730000Y-91910000D03*
%TO.P,J3,6,Pin_6*%
%TO.N,unconnected-(J3-Pin_6-Pad6)*%
X175730000Y-94450000D03*
%TO.P,J3,7,Pin_7*%
%TO.N,+3V3*%
X173190000Y-91910000D03*
%TO.P,J3,8,Pin_8*%
%TO.N,unconnected-(J3-Pin_8-Pad8)*%
X173190000Y-94450000D03*
%TO.P,J3,9,Pin_9*%
%TO.N,GND*%
X170650000Y-91910000D03*
%TO.P,J3,10,Pin_10*%
%TO.N,unconnected-(J3-Pin_10-Pad10)*%
X170650000Y-94450000D03*
%TD*%
D12*
%TO.P,R9,1*%
%TO.N,GPIO11*%
X124930000Y-75400000D03*
%TO.P,R9,2*%
%TO.N,Net-(D2-A)*%
X124930000Y-72860000D03*
%TD*%
%TO.P,R5,2*%
%TO.N,Net-(R5-Pad2)*%
X124930000Y-86830000D03*
%TO.P,R5,1*%
%TO.N,GPIO11*%
X124930000Y-84290000D03*
%TD*%
D26*
%TO.P,U4,1*%
%TO.N,Net-(R20-Pad2)*%
X160490000Y-92545000D03*
D14*
%TO.P,U4,2*%
%TO.N,GND*%
X157950000Y-92545000D03*
%TO.P,U4,3*%
%TO.N,Net-(R18-Pad2)*%
X155410000Y-92545000D03*
%TO.P,U4,4*%
%TO.N,GND*%
X152870000Y-92545000D03*
%TO.P,U4,5*%
%TO.N,Net-(R16-Pad2)*%
X150330000Y-92545000D03*
%TO.P,U4,6*%
%TO.N,GND*%
X147790000Y-92545000D03*
%TO.P,U4,7*%
%TO.N,Net-(R14-Pad2)*%
X145250000Y-92545000D03*
%TO.P,U4,8*%
%TO.N,GND*%
X142710000Y-92545000D03*
%TO.P,U4,9*%
X142710000Y-100165000D03*
%TO.P,U4,10*%
%TO.N,Net-(D12-A)*%
X145250000Y-100165000D03*
%TO.P,U4,11*%
%TO.N,GND*%
X147790000Y-100165000D03*
%TO.P,U4,12*%
%TO.N,Net-(D13-A)*%
X150330000Y-100165000D03*
%TO.P,U4,13*%
%TO.N,GND*%
X152870000Y-100165000D03*
%TO.P,U4,14*%
%TO.N,Net-(D16-A)*%
X155410000Y-100165000D03*
%TO.P,U4,15*%
%TO.N,GND*%
X157950000Y-100165000D03*
%TO.P,U4,16*%
%TO.N,Net-(D17-A)*%
X160490000Y-100165000D03*
%TD*%
D26*
%TO.P,U3,1*%
%TO.N,Net-(R8-Pad2)*%
X137630000Y-92545000D03*
D14*
%TO.P,U3,2*%
%TO.N,GND*%
X135090000Y-92545000D03*
%TO.P,U3,3*%
%TO.N,Net-(R7-Pad2)*%
X132550000Y-92545000D03*
%TO.P,U3,4*%
%TO.N,GND*%
X130010000Y-92545000D03*
%TO.P,U3,5*%
%TO.N,Net-(R6-Pad2)*%
X127470000Y-92545000D03*
%TO.P,U3,6*%
%TO.N,GND*%
X124930000Y-92545000D03*
%TO.P,U3,7*%
%TO.N,Net-(R5-Pad2)*%
X122390000Y-92545000D03*
%TO.P,U3,8*%
%TO.N,GND*%
X119850000Y-92545000D03*
%TO.P,U3,9*%
X119850000Y-100165000D03*
%TO.P,U3,10*%
%TO.N,Net-(D6-A)*%
X122390000Y-100165000D03*
%TO.P,U3,11*%
%TO.N,GND*%
X124930000Y-100165000D03*
%TO.P,U3,12*%
%TO.N,Net-(D7-A)*%
X127470000Y-100165000D03*
%TO.P,U3,13*%
%TO.N,GND*%
X130010000Y-100165000D03*
%TO.P,U3,14*%
%TO.N,Net-(D8-A)*%
X132550000Y-100165000D03*
%TO.P,U3,15*%
%TO.N,GND*%
X135090000Y-100165000D03*
%TO.P,U3,16*%
%TO.N,Net-(D9-A)*%
X137630000Y-100165000D03*
%TD*%
D27*
%TO.P,U2,1,FB*%
%TO.N,+3V3*%
X89635000Y-79530000D03*
%TO.P,U2,2,EN*%
%TO.N,+12V*%
X89635000Y-80480000D03*
%TO.P,U2,3,IN*%
X89635000Y-81430000D03*
%TO.P,U2,4,GND*%
%TO.N,GND*%
X91910000Y-81430000D03*
%TO.P,U2,5,SW*%
%TO.N,Net-(U2-SW)*%
X91910000Y-80480000D03*
%TO.P,U2,6,BST*%
%TO.N,Net-(U2-BST)*%
X91910000Y-79530000D03*
%TD*%
D19*
%TO.P,RL8,11*%
%TO.N,Net-(J11-Pin_3)*%
X187750000Y-132900000D03*
%TO.P,RL8,12*%
%TO.N,Net-(J11-Pin_2)*%
X180250000Y-129400000D03*
%TO.P,RL8,14*%
%TO.N,Net-(J11-Pin_1)*%
X180250000Y-136400000D03*
%TO.P,RL8,A1*%
%TO.N,+12V*%
X180250000Y-112900000D03*
%TO.P,RL8,A2*%
%TO.N,Net-(D17-A)*%
X187750000Y-112900000D03*
%TD*%
D12*
%TO.P,R20,1*%
%TO.N,GPIO23*%
X160490000Y-84290000D03*
%TO.P,R20,2*%
%TO.N,Net-(R20-Pad2)*%
X160490000Y-86830000D03*
%TD*%
%TO.P,R19,1*%
%TO.N,GPIO23*%
X160490000Y-75400000D03*
%TO.P,R19,2*%
%TO.N,Net-(D15-A)*%
X160490000Y-72860000D03*
%TD*%
%TO.P,R18,1*%
%TO.N,GPIO22*%
X155410000Y-84290000D03*
%TO.P,R18,2*%
%TO.N,Net-(R18-Pad2)*%
X155410000Y-86830000D03*
%TD*%
%TO.P,R17,1*%
%TO.N,GPIO22*%
X155410000Y-75400000D03*
%TO.P,R17,2*%
%TO.N,Net-(D14-A)*%
X155410000Y-72860000D03*
%TD*%
%TO.P,R16,1*%
%TO.N,GPIO21*%
X150330000Y-84290000D03*
%TO.P,R16,2*%
%TO.N,Net-(R16-Pad2)*%
X150330000Y-86830000D03*
%TD*%
%TO.P,R15,1*%
%TO.N,GPIO21*%
X150330000Y-75400000D03*
%TO.P,R15,2*%
%TO.N,Net-(D11-A)*%
X150330000Y-72860000D03*
%TD*%
%TO.P,R14,1*%
%TO.N,GPIO20*%
X145250000Y-84290000D03*
%TO.P,R14,2*%
%TO.N,Net-(R14-Pad2)*%
X145250000Y-86830000D03*
%TD*%
%TO.P,R13,1*%
%TO.N,GPIO20*%
X145250000Y-75400000D03*
%TO.P,R13,2*%
%TO.N,Net-(D10-A)*%
X145250000Y-72860000D03*
%TD*%
%TO.P,R11,2*%
%TO.N,Net-(D4-A)*%
X135090000Y-72860000D03*
%TO.P,R11,1*%
%TO.N,GPIO18*%
X135090000Y-75400000D03*
%TD*%
%TO.P,R10,2*%
%TO.N,Net-(D3-A)*%
X130010000Y-72860000D03*
%TO.P,R10,1*%
%TO.N,GPIO15*%
X130010000Y-75400000D03*
%TD*%
%TO.P,R7,2*%
%TO.N,Net-(R7-Pad2)*%
X135090000Y-86830000D03*
%TO.P,R7,1*%
%TO.N,GPIO18*%
X135090000Y-84290000D03*
%TD*%
%TO.P,R6,2*%
%TO.N,Net-(R6-Pad2)*%
X130010000Y-86830000D03*
%TO.P,R6,1*%
%TO.N,GPIO15*%
X130010000Y-84290000D03*
%TD*%
%TO.P,R3,1*%
%TO.N,GPIO9*%
X189065000Y-86830000D03*
%TO.P,R3,2*%
%TO.N,+3V3*%
X191605000Y-86830000D03*
%TD*%
%TO.P,R2,1*%
%TO.N,GPIO8*%
X194145000Y-86830000D03*
%TO.P,R2,2*%
%TO.N,+3V3*%
X196685000Y-86830000D03*
%TD*%
%TO.P,R1,1*%
%TO.N,+3V3*%
X119850000Y-75400000D03*
%TO.P,R1,2*%
%TO.N,Net-(D1-A)*%
X119850000Y-72860000D03*
%TD*%
D28*
%TO.P,L1,1*%
%TO.N,Net-(U2-SW)*%
X94990000Y-73320000D03*
%TO.P,L1,2*%
%TO.N,+3V3*%
X94990000Y-69820000D03*
%TD*%
D29*
%TO.P,J19,1,Pin_1*%
%TO.N,+12V*%
X93500000Y-55000000D03*
D17*
%TO.P,J19,2,Pin_2*%
%TO.N,GPIO3*%
X90000000Y-55000000D03*
%TO.P,J19,3,Pin_3*%
%TO.N,GND*%
X86500000Y-55000000D03*
%TD*%
D29*
%TO.P,J18,1,Pin_1*%
%TO.N,+12V*%
X106000000Y-55000000D03*
D17*
%TO.P,J18,2,Pin_2*%
%TO.N,GPIO2*%
X102500000Y-55000000D03*
%TO.P,J18,3,Pin_3*%
%TO.N,GND*%
X99000000Y-55000000D03*
%TD*%
D29*
%TO.P,J17,1,Pin_1*%
%TO.N,+12V*%
X118500000Y-55000000D03*
D17*
%TO.P,J17,2,Pin_2*%
%TO.N,GPIO1*%
X115000000Y-55000000D03*
%TO.P,J17,3,Pin_3*%
%TO.N,GND*%
X111500000Y-55000000D03*
%TD*%
D29*
%TO.P,J16,1,Pin_1*%
%TO.N,+12V*%
X131000000Y-55000000D03*
D17*
%TO.P,J16,2,Pin_2*%
%TO.N,GPIO0*%
X127500000Y-55000000D03*
%TO.P,J16,3,Pin_3*%
%TO.N,GND*%
X124000000Y-55000000D03*
%TD*%
D29*
%TO.P,J15,1,Pin_1*%
%TO.N,+3V3*%
X143500000Y-55000000D03*
D17*
%TO.P,J15,2,Pin_2*%
%TO.N,GPIO7*%
X140000000Y-55000000D03*
%TO.P,J15,3,Pin_3*%
%TO.N,GND*%
X136500000Y-55000000D03*
%TD*%
D29*
%TO.P,J14,1,Pin_1*%
%TO.N,+3V3*%
X156000000Y-55000000D03*
D17*
%TO.P,J14,2,Pin_2*%
%TO.N,GPIO6*%
X152500000Y-55000000D03*
%TO.P,J14,3,Pin_3*%
%TO.N,GND*%
X149000000Y-55000000D03*
%TD*%
D29*
%TO.P,J13,1,Pin_1*%
%TO.N,+3V3*%
X168500000Y-55000000D03*
D17*
%TO.P,J13,2,Pin_2*%
%TO.N,GPIO5*%
X165000000Y-55000000D03*
%TO.P,J13,3,Pin_3*%
%TO.N,GND*%
X161500000Y-55000000D03*
%TD*%
%TO.P,J12,3,Pin_3*%
%TO.N,GND*%
X174000000Y-55000000D03*
%TO.P,J12,2,Pin_2*%
%TO.N,GPIO4*%
X177500000Y-55000000D03*
D29*
%TO.P,J12,1,Pin_1*%
%TO.N,+3V3*%
X181000000Y-55000000D03*
%TD*%
D18*
%TO.P,J11,1,Pin_1*%
%TO.N,Net-(J11-Pin_1)*%
X180500000Y-145000000D03*
D17*
%TO.P,J11,2,Pin_2*%
%TO.N,Net-(J11-Pin_2)*%
X184000000Y-145000000D03*
%TO.P,J11,3,Pin_3*%
%TO.N,Net-(J11-Pin_3)*%
X187500000Y-145000000D03*
%TD*%
D13*
%TO.P,J1,1,Pin_1*%
%TO.N,GND*%
X77500000Y-55000000D03*
%TD*%
D16*
%TO.P,D17,1,K*%
%TO.N,+12V*%
X180190000Y-109000000D03*
D14*
%TO.P,D17,2,A*%
%TO.N,Net-(D17-A)*%
X187810000Y-109000000D03*
%TD*%
D24*
%TO.P,D15,1,K*%
%TO.N,GND*%
X159220000Y-69050000D03*
D25*
%TO.P,D15,2,A*%
%TO.N,Net-(D15-A)*%
X161760000Y-69050000D03*
%TD*%
D24*
%TO.P,D14,1,K*%
%TO.N,GND*%
X154140000Y-69050000D03*
D25*
%TO.P,D14,2,A*%
%TO.N,Net-(D14-A)*%
X156680000Y-69050000D03*
%TD*%
D24*
%TO.P,D11,1,K*%
%TO.N,GND*%
X149060000Y-69050000D03*
D25*
%TO.P,D11,2,A*%
%TO.N,Net-(D11-A)*%
X151600000Y-69050000D03*
%TD*%
D24*
%TO.P,D10,1,K*%
%TO.N,GND*%
X143980000Y-69050000D03*
D25*
%TO.P,D10,2,A*%
%TO.N,Net-(D10-A)*%
X146520000Y-69050000D03*
%TD*%
D24*
%TO.P,D5,1,K*%
%TO.N,GND*%
X138900000Y-69050000D03*
D25*
%TO.P,D5,2,A*%
%TO.N,Net-(D5-A)*%
X141440000Y-69050000D03*
%TD*%
D24*
%TO.P,D3,1,K*%
%TO.N,GND*%
X128740000Y-69050000D03*
D25*
%TO.P,D3,2,A*%
%TO.N,Net-(D3-A)*%
X131280000Y-69050000D03*
%TD*%
D24*
%TO.P,D2,1,K*%
%TO.N,GND*%
X123660000Y-69050000D03*
D25*
%TO.P,D2,2,A*%
%TO.N,Net-(D2-A)*%
X126200000Y-69050000D03*
%TD*%
D24*
%TO.P,D1,1,K*%
%TO.N,GND*%
X118580000Y-69050000D03*
D25*
%TO.P,D1,2,A*%
%TO.N,Net-(D1-A)*%
X121120000Y-69050000D03*
%TD*%
D23*
%TO.P,C3,1*%
%TO.N,+3V3*%
X105000000Y-73000000D03*
D14*
%TO.P,C3,2*%
%TO.N,GND*%
X105000000Y-69500000D03*
%TD*%
%TO.P,C1,2*%
%TO.N,GND*%
X85000000Y-69500000D03*
D23*
%TO.P,C1,1*%
%TO.N,+12V*%
X85000000Y-73000000D03*
%TD*%
D21*
%TO.P,J20,1,Pin_1*%
%TO.N,GPIO8*%
X193510000Y-91910000D03*
D20*
%TO.P,J20,2,Pin_2*%
%TO.N,GND*%
X193510000Y-94450000D03*
%TO.P,J20,3,Pin_3*%
%TO.N,GPIO9*%
X190970000Y-91910000D03*
%TO.P,J20,4,Pin_4*%
%TO.N,GND*%
X190970000Y-94450000D03*
%TO.P,J20,5,Pin_5*%
%TO.N,GPIO10*%
X188430000Y-91910000D03*
%TO.P,J20,6,Pin_6*%
%TO.N,GND*%
X188430000Y-94450000D03*
%TO.P,J20,7,Pin_7*%
%TO.N,EN*%
X185890000Y-91910000D03*
%TO.P,J20,8,Pin_8*%
%TO.N,GND*%
X185890000Y-94450000D03*
%TD*%
D29*
%TO.P,J2,1,Pin_1*%
%TO.N,GND*%
X68500000Y-55000000D03*
D17*
%TO.P,J2,2,Pin_2*%
%TO.N,+3V3*%
X65000000Y-55000000D03*
%TO.P,J2,3,Pin_3*%
%TO.N,+12V*%
X61500000Y-55000000D03*
%TD*%
D30*
%TO.P,PS1,4,+Vout*%
%TO.N,Net-(PS1-+Vout)*%
X64000000Y-75400000D03*
%TO.P,PS1,3,-Vout*%
%TO.N,GND*%
X46000000Y-75400000D03*
%TO.P,PS1,2,AC/N*%
%TO.N,NEUT*%
X58000000Y-109000000D03*
D31*
%TO.P,PS1,1,AC/L*%
%TO.N,AC*%
X52000000Y-109000000D03*
%TD*%
D32*
%TO.N,+3V3*%
X187160000Y-84925000D03*
%TO.N,GND*%
X124930000Y-95085000D03*
X119850000Y-95085000D03*
%TO.N,+3V3*%
X186550000Y-62040000D03*
%TO.N,GPIO9*%
X184620000Y-88735000D03*
%TO.N,+3V3*%
X182715000Y-88735000D03*
%TO.N,GPIO9*%
X171920000Y-84925000D03*
%TO.N,EN*%
X185255000Y-62065000D03*
%TO.N,GPIO10*%
X174460000Y-63335000D03*
%TO.N,GPIO8*%
X175730000Y-63335000D03*
%TO.N,GPIO3*%
X166205000Y-63970000D03*
X166205000Y-71590000D03*
%TO.N,GPIO2*%
X167475000Y-70320000D03*
X167475000Y-63335000D03*
%TO.N,GPIO22*%
X156680000Y-76670000D03*
%TO.N,GPIO21*%
X152235000Y-77305000D03*
%TO.N,GPIO20*%
X147790000Y-77940000D03*
%TO.N,GPIO19*%
X143345000Y-78575000D03*
%TO.N,GPIO18*%
X138900000Y-79210000D03*
%TO.N,GPIO15*%
X134455000Y-79845000D03*
%TO.N,GPIO11*%
X130645000Y-81115000D03*
X164935000Y-75945000D03*
X163030000Y-81750000D03*
%TD*%
D33*
%TO.N,GPIO15*%
X171285000Y-86195000D02*
X165570000Y-80480000D01*
X179540000Y-86195000D02*
X171285000Y-86195000D01*
X181470000Y-84265000D02*
X179540000Y-86195000D01*
X165570000Y-80480000D02*
X135090000Y-80480000D01*
X135090000Y-80480000D02*
X134455000Y-79845000D01*
X181470000Y-82880000D02*
X181470000Y-84265000D01*
%TO.N,+3V3*%
X186525000Y-57620000D02*
X187795000Y-58890000D01*
X185255000Y-57620000D02*
X186525000Y-57620000D01*
D34*
X187795000Y-58890000D02*
X187795000Y-58255000D01*
D33*
%TO.N,EN*%
X185255000Y-60160000D02*
X185255000Y-62065000D01*
D34*
%TO.N,+3V3*%
X188755000Y-103030000D02*
X193510000Y-103030000D01*
X183347896Y-97622896D02*
X188755000Y-103030000D01*
D33*
%TO.N,GPIO9*%
X190970000Y-88735000D02*
X190970000Y-90005000D01*
X189065000Y-86830000D02*
X190970000Y-88735000D01*
%TO.N,GPIO8*%
X193510000Y-87465000D02*
X194145000Y-86830000D01*
X193510000Y-91910000D02*
X193510000Y-87465000D01*
%TO.N,+3V3*%
X196050000Y-84925000D02*
X190970000Y-84925000D01*
X196685000Y-85560000D02*
X196050000Y-84925000D01*
X196685000Y-86830000D02*
X196685000Y-85560000D01*
X190970000Y-84925000D02*
X187160000Y-84925000D01*
X191605000Y-85560000D02*
X190970000Y-84925000D01*
X191605000Y-86830000D02*
X191605000Y-85560000D01*
D34*
X186525000Y-84925000D02*
X187160000Y-84925000D01*
X185885793Y-85560000D02*
X185890000Y-85560000D01*
X185890000Y-85560000D02*
X186525000Y-84925000D01*
X183347896Y-88097896D02*
X183347896Y-97622896D01*
D35*
%TO.N,GND*%
X119850000Y-95085000D02*
X124930000Y-95085000D01*
D33*
%TO.N,Net-(D1-A)*%
X121120000Y-71590000D02*
X121120000Y-69050000D01*
X119850000Y-72860000D02*
X121120000Y-71590000D01*
D35*
%TO.N,+12V*%
X70320000Y-69050000D02*
X74270000Y-73000000D01*
X74270000Y-73000000D02*
X85000000Y-73000000D01*
%TO.N,+3V3*%
X70320000Y-62700000D02*
X69050000Y-61430000D01*
X87870000Y-62700000D02*
X70320000Y-62700000D01*
X69050000Y-61430000D02*
X65000000Y-57380000D01*
X74130000Y-65240000D02*
X72860000Y-65240000D01*
X75400000Y-66510000D02*
X74130000Y-65240000D01*
X72860000Y-65240000D02*
X69050000Y-61430000D01*
X65000000Y-57380000D02*
X65000000Y-55000000D01*
X75400000Y-69050000D02*
X75400000Y-66510000D01*
%TO.N,+12V*%
X61500000Y-60230000D02*
X70320000Y-69050000D01*
X61500000Y-55000000D02*
X61500000Y-60230000D01*
D34*
%TO.N,Net-(D13-A)*%
X154140000Y-105245000D02*
X157950000Y-105245000D01*
X150330000Y-101435000D02*
X154140000Y-105245000D01*
X157950000Y-105245000D02*
X159810000Y-107105000D01*
X159810000Y-107105000D02*
X159810000Y-109000000D01*
%TO.N,Net-(D16-A)*%
X168785000Y-103975000D02*
X173810000Y-109000000D01*
X157950000Y-103975000D02*
X168785000Y-103975000D01*
X155410000Y-101435000D02*
X157950000Y-103975000D01*
X155410000Y-100165000D02*
X155410000Y-101435000D01*
%TO.N,Net-(D17-A)*%
X181515000Y-102705000D02*
X187810000Y-109000000D01*
X161760000Y-102705000D02*
X181515000Y-102705000D01*
X160490000Y-101435000D02*
X161760000Y-102705000D01*
X160490000Y-100165000D02*
X160490000Y-101435000D01*
%TO.N,Net-(D13-A)*%
X150330000Y-100165000D02*
X150330000Y-101435000D01*
%TO.N,Net-(D12-A)*%
X145810000Y-101995000D02*
X145810000Y-109000000D01*
X145250000Y-101435000D02*
X145810000Y-101995000D01*
X145250000Y-100165000D02*
X145250000Y-101435000D01*
%TO.N,Net-(D9-A)*%
X137630000Y-101435000D02*
X131810000Y-107255000D01*
X131810000Y-107255000D02*
X131810000Y-109000000D01*
X137630000Y-100165000D02*
X137630000Y-101435000D01*
%TO.N,Net-(D8-A)*%
X129375000Y-104610000D02*
X122200000Y-104610000D01*
X132550000Y-101435000D02*
X129375000Y-104610000D01*
X122200000Y-104610000D02*
X117810000Y-109000000D01*
X132550000Y-100165000D02*
X132550000Y-101435000D01*
%TO.N,Net-(D7-A)*%
X125565000Y-103340000D02*
X109470000Y-103340000D01*
X109470000Y-103340000D02*
X103810000Y-109000000D01*
X127470000Y-100165000D02*
X127470000Y-101435000D01*
X127470000Y-101435000D02*
X125565000Y-103340000D01*
%TO.N,Net-(D6-A)*%
X121755000Y-102070000D02*
X96740000Y-102070000D01*
X122390000Y-101435000D02*
X121755000Y-102070000D01*
X122390000Y-100165000D02*
X122390000Y-101435000D01*
X96740000Y-102070000D02*
X89810000Y-109000000D01*
%TO.N,GND*%
X99980000Y-72040000D02*
X99980000Y-69500000D01*
X108420000Y-80480000D02*
X99980000Y-72040000D01*
X103340000Y-84290000D02*
X107150000Y-84290000D01*
X95720000Y-84290000D02*
X103340000Y-84290000D01*
X108420000Y-83020000D02*
X108420000Y-80480000D01*
X94450000Y-83020000D02*
X95720000Y-84290000D01*
X107150000Y-84290000D02*
X108420000Y-83020000D01*
X94130000Y-81430000D02*
X94450000Y-81750000D01*
X94450000Y-81750000D02*
X94450000Y-83020000D01*
X91910000Y-81430000D02*
X94130000Y-81430000D01*
%TO.N,+12V*%
X84290000Y-80480000D02*
X83020000Y-79210000D01*
X89635000Y-80480000D02*
X84290000Y-80480000D01*
X83020000Y-80480000D02*
X83020000Y-79210000D01*
X83020000Y-79210000D02*
X83020000Y-74980000D01*
X83970000Y-81430000D02*
X83020000Y-80480000D01*
X83020000Y-74980000D02*
X85000000Y-73000000D01*
X89635000Y-81430000D02*
X83970000Y-81430000D01*
%TO.N,Net-(U2-SW)*%
X95480000Y-80480000D02*
X97000000Y-82000000D01*
X91910000Y-80480000D02*
X95480000Y-80480000D01*
%TO.N,Net-(U2-BST)*%
X99530000Y-79530000D02*
X102000000Y-82000000D01*
X91910000Y-79530000D02*
X99530000Y-79530000D01*
%TO.N,+3V3*%
X86830000Y-75400000D02*
X93700000Y-68530000D01*
X86830000Y-79210000D02*
X86830000Y-75400000D01*
D35*
X93700000Y-68530000D02*
X87870000Y-62700000D01*
D34*
X87150000Y-79530000D02*
X86830000Y-79210000D01*
X89635000Y-79530000D02*
X87150000Y-79530000D01*
D35*
%TO.N,GND*%
X68500000Y-57070000D02*
X68500000Y-55000000D01*
X70320000Y-58890000D02*
X68500000Y-57070000D01*
X79210000Y-58890000D02*
X70320000Y-58890000D01*
X77500000Y-57180000D02*
X77500000Y-55000000D01*
X89370000Y-58890000D02*
X79210000Y-58890000D01*
X79210000Y-58890000D02*
X77500000Y-57180000D01*
X99980000Y-69500000D02*
X89370000Y-58890000D01*
X105000000Y-69500000D02*
X99980000Y-69500000D01*
D34*
%TO.N,+3V3*%
X68095000Y-51905000D02*
X65000000Y-55000000D01*
X177905000Y-51905000D02*
X68095000Y-51905000D01*
D35*
X94990000Y-69820000D02*
X93700000Y-68530000D01*
D34*
%TO.N,Net-(D16-A)*%
X173750000Y-112900000D02*
X173750000Y-109060000D01*
%TO.N,+12V*%
X166250000Y-112900000D02*
X166250000Y-109060000D01*
X152250000Y-109060000D02*
X152190000Y-109000000D01*
%TO.N,Net-(D16-A)*%
X173750000Y-109060000D02*
X173810000Y-109000000D01*
%TO.N,Net-(D12-A)*%
X145750000Y-109060000D02*
X145810000Y-109000000D01*
%TO.N,+12V*%
X138250000Y-112900000D02*
X138250000Y-109060000D01*
X138250000Y-109060000D02*
X138190000Y-109000000D01*
%TO.N,Net-(D9-A)*%
X131750000Y-109060000D02*
X131810000Y-109000000D01*
%TO.N,+12V*%
X124250000Y-112900000D02*
X124250000Y-109060000D01*
X166250000Y-109060000D02*
X166190000Y-109000000D01*
%TO.N,Net-(D9-A)*%
X131750000Y-112900000D02*
X131750000Y-109060000D01*
%TO.N,+12V*%
X124250000Y-109060000D02*
X124190000Y-109000000D01*
%TO.N,Net-(D8-A)*%
X117750000Y-112900000D02*
X117750000Y-109060000D01*
X117750000Y-109060000D02*
X117810000Y-109000000D01*
%TO.N,+12V*%
X110250000Y-109060000D02*
X110190000Y-109000000D01*
X110250000Y-112900000D02*
X110250000Y-109060000D01*
%TO.N,Net-(D7-A)*%
X103750000Y-112900000D02*
X103750000Y-109060000D01*
X103750000Y-109060000D02*
X103810000Y-109000000D01*
%TO.N,Net-(D13-A)*%
X159750000Y-112900000D02*
X159750000Y-109060000D01*
%TO.N,+12V*%
X96250000Y-112900000D02*
X96250000Y-109060000D01*
%TO.N,Net-(D12-A)*%
X145750000Y-112900000D02*
X145750000Y-109060000D01*
%TO.N,+12V*%
X152250000Y-112900000D02*
X152250000Y-109060000D01*
%TO.N,Net-(D13-A)*%
X159750000Y-109060000D02*
X159810000Y-109000000D01*
%TO.N,Net-(D6-A)*%
X89750000Y-112900000D02*
X89750000Y-109060000D01*
X89750000Y-109060000D02*
X89810000Y-109000000D01*
%TO.N,+12V*%
X96250000Y-109060000D02*
X96190000Y-109000000D01*
X82250000Y-109060000D02*
X82190000Y-109000000D01*
X82250000Y-112900000D02*
X82250000Y-109060000D01*
D33*
%TO.N,Net-(D15-A)*%
X161760000Y-71590000D02*
X161760000Y-69050000D01*
X160490000Y-72860000D02*
X161760000Y-71590000D01*
%TO.N,Net-(D14-A)*%
X156680000Y-71590000D02*
X156680000Y-69050000D01*
X155410000Y-72860000D02*
X156680000Y-71590000D01*
%TO.N,Net-(D11-A)*%
X151600000Y-71590000D02*
X151600000Y-69050000D01*
X150330000Y-72860000D02*
X151600000Y-71590000D01*
%TO.N,Net-(D10-A)*%
X146520000Y-71590000D02*
X146520000Y-69050000D01*
X145250000Y-72860000D02*
X146520000Y-71590000D01*
%TO.N,Net-(D5-A)*%
X141440000Y-71590000D02*
X141440000Y-69050000D01*
X140170000Y-72860000D02*
X141440000Y-71590000D01*
%TO.N,Net-(D4-A)*%
X136360000Y-71590000D02*
X136360000Y-69050000D01*
X135090000Y-72860000D02*
X136360000Y-71590000D01*
%TO.N,Net-(D3-A)*%
X131280000Y-71590000D02*
X131280000Y-69050000D01*
X130010000Y-72860000D02*
X131280000Y-71590000D01*
%TO.N,Net-(D2-A)*%
X126200000Y-71590000D02*
X126200000Y-69050000D01*
X124930000Y-72860000D02*
X126200000Y-71590000D01*
D34*
%TO.N,+3V3*%
X183347896Y-88097896D02*
X185885793Y-85560000D01*
X186550000Y-62040000D02*
X186550000Y-62700000D01*
X187795000Y-60795000D02*
X187795000Y-58890000D01*
X187160000Y-51905000D02*
X183985000Y-51905000D01*
X187795000Y-52540000D02*
X187160000Y-51905000D01*
X187795000Y-55715000D02*
X187795000Y-52540000D01*
X187795000Y-58255000D02*
X187795000Y-55715000D01*
X186550000Y-62040000D02*
X187795000Y-60795000D01*
X186550000Y-65380000D02*
X186550000Y-62040000D01*
D33*
%TO.N,GPIO9*%
X190970000Y-90005000D02*
X190970000Y-91910000D01*
X185255000Y-89370000D02*
X190335000Y-89370000D01*
X190335000Y-89370000D02*
X190970000Y-90005000D01*
X184620000Y-88735000D02*
X185255000Y-89370000D01*
D34*
%TO.N,+3V3*%
X182715000Y-88735000D02*
X182715000Y-88730793D01*
X182715000Y-88730793D02*
X183347896Y-88097896D01*
%TO.N,GND*%
X187820000Y-66905000D02*
X187820000Y-82880000D01*
X183350000Y-73875000D02*
X180850000Y-73875000D01*
X183350000Y-71375000D02*
X183350000Y-73875000D01*
X180850000Y-71375000D02*
X183350000Y-71375000D01*
X180850000Y-73875000D02*
X180850000Y-71375000D01*
X187820000Y-66905000D02*
X180850000Y-73875000D01*
X187820000Y-65380000D02*
X187820000Y-66905000D01*
%TO.N,+3V3*%
X183985000Y-51905000D02*
X177905000Y-51905000D01*
X168500000Y-55000000D02*
X165405000Y-51905000D01*
X156000000Y-55000000D02*
X152905000Y-51905000D01*
X143500000Y-55000000D02*
X140405000Y-51905000D01*
D33*
%TO.N,GPIO9*%
X171310000Y-84315000D02*
X171920000Y-84925000D01*
X171310000Y-82880000D02*
X171310000Y-84315000D01*
%TO.N,Net-(R5-Pad2)*%
X124930000Y-90005000D02*
X122390000Y-92545000D01*
X124930000Y-86830000D02*
X124930000Y-90005000D01*
%TO.N,Net-(R6-Pad2)*%
X130010000Y-90005000D02*
X127470000Y-92545000D01*
X130010000Y-86830000D02*
X130010000Y-90005000D01*
%TO.N,Net-(R7-Pad2)*%
X135090000Y-90005000D02*
X132550000Y-92545000D01*
X135090000Y-86830000D02*
X135090000Y-90005000D01*
%TO.N,Net-(R8-Pad2)*%
X140170000Y-90005000D02*
X137630000Y-92545000D01*
X140170000Y-86830000D02*
X140170000Y-90005000D01*
%TO.N,Net-(R14-Pad2)*%
X145250000Y-86830000D02*
X145250000Y-92545000D01*
%TO.N,Net-(R16-Pad2)*%
X150330000Y-86830000D02*
X150330000Y-92545000D01*
%TO.N,Net-(R18-Pad2)*%
X155410000Y-86830000D02*
X155410000Y-92545000D01*
%TO.N,Net-(R20-Pad2)*%
X160490000Y-86830000D02*
X160490000Y-92545000D01*
D34*
%TO.N,+12V*%
X180250000Y-109060000D02*
X180190000Y-109000000D01*
X180250000Y-112900000D02*
X180250000Y-109060000D01*
%TO.N,Net-(D17-A)*%
X187750000Y-109060000D02*
X187810000Y-109000000D01*
X187750000Y-112900000D02*
X187750000Y-109060000D01*
D33*
%TO.N,U0TxD*%
X178270000Y-91275000D02*
X178270000Y-91910000D01*
X184010000Y-85535000D02*
X178270000Y-91275000D01*
X184010000Y-82880000D02*
X184010000Y-85535000D01*
%TO.N,U0Rxd*%
X175730000Y-91275000D02*
X175730000Y-91910000D01*
X182740000Y-84265000D02*
X175730000Y-91275000D01*
X182740000Y-82880000D02*
X182740000Y-84265000D01*
%TO.N,EN*%
X185280000Y-62090000D02*
X185255000Y-62065000D01*
X185280000Y-65380000D02*
X185280000Y-62090000D01*
%TO.N,GPIO10*%
X175120000Y-63995000D02*
X174460000Y-63335000D01*
X175120000Y-65380000D02*
X175120000Y-63995000D01*
%TO.N,GPIO8*%
X176390000Y-63995000D02*
X175730000Y-63335000D01*
X176390000Y-65380000D02*
X176390000Y-63995000D01*
%TO.N,GPIO2*%
X184937500Y-79527500D02*
X186550000Y-81140000D01*
X186550000Y-81140000D02*
X186550000Y-82880000D01*
X179857500Y-79527500D02*
X184937500Y-79527500D01*
X170650000Y-70320000D02*
X179857500Y-79527500D01*
X167475000Y-70320000D02*
X170650000Y-70320000D01*
%TO.N,GPIO3*%
X185280000Y-81140000D02*
X185280000Y-82880000D01*
X184620000Y-80480000D02*
X185280000Y-81140000D01*
X179540000Y-80480000D02*
X184620000Y-80480000D01*
X170650000Y-71590000D02*
X179540000Y-80480000D01*
X166205000Y-71590000D02*
X170650000Y-71590000D01*
X98335000Y-63335000D02*
X90000000Y-55000000D01*
X165570000Y-63335000D02*
X98335000Y-63335000D01*
X166205000Y-63970000D02*
X165570000Y-63335000D01*
%TO.N,GPIO2*%
X110200000Y-62700000D02*
X102500000Y-55000000D01*
X166840000Y-62700000D02*
X110200000Y-62700000D01*
X167475000Y-63335000D02*
X166840000Y-62700000D01*
%TO.N,GPIO1*%
X176365000Y-62065000D02*
X122065000Y-62065000D01*
X177660000Y-63360000D02*
X176365000Y-62065000D01*
X122065000Y-62065000D02*
X115000000Y-55000000D01*
X177660000Y-65380000D02*
X177660000Y-63360000D01*
%TO.N,GPIO0*%
X177000000Y-61430000D02*
X133930000Y-61430000D01*
X178930000Y-63360000D02*
X177000000Y-61430000D01*
X133930000Y-61430000D02*
X127500000Y-55000000D01*
X178930000Y-65380000D02*
X178930000Y-63360000D01*
%TO.N,GPIO7*%
X145795000Y-60795000D02*
X145205000Y-60205000D01*
X177635000Y-60795000D02*
X145795000Y-60795000D01*
X180200000Y-63360000D02*
X177635000Y-60795000D01*
X140000000Y-55000000D02*
X145205000Y-60205000D01*
X180200000Y-65380000D02*
X180200000Y-63360000D01*
%TO.N,GPIO6*%
X157660000Y-60160000D02*
X152500000Y-55000000D01*
X178270000Y-60160000D02*
X157660000Y-60160000D01*
X181470000Y-63360000D02*
X178270000Y-60160000D01*
X181470000Y-65380000D02*
X181470000Y-63360000D01*
%TO.N,GPIO5*%
X165000000Y-57050000D02*
X165000000Y-55000000D01*
X167475000Y-59525000D02*
X165000000Y-57050000D01*
X178905000Y-59525000D02*
X167475000Y-59525000D01*
X182740000Y-63360000D02*
X178905000Y-59525000D01*
X182740000Y-65380000D02*
X182740000Y-63360000D01*
%TO.N,GPIO4*%
X177500000Y-56850000D02*
X177500000Y-55000000D01*
X184010000Y-65380000D02*
X184010000Y-63360000D01*
X184010000Y-63360000D02*
X177500000Y-56850000D01*
%TO.N,GPIO11*%
X173850000Y-67120000D02*
X171920000Y-69050000D01*
X173850000Y-65380000D02*
X173850000Y-67120000D01*
X171920000Y-69050000D02*
X166840000Y-69050000D01*
X166840000Y-69050000D02*
X164935000Y-70955000D01*
X164935000Y-70955000D02*
X164935000Y-75945000D01*
%TO.N,GPIO22*%
X156680000Y-76670000D02*
X157315000Y-77305000D01*
%TO.N,GPIO21*%
X152235000Y-77305000D02*
X150330000Y-75400000D01*
%TO.N,GPIO20*%
X147790000Y-77940000D02*
X148425000Y-78575000D01*
%TO.N,GPIO19*%
X143345000Y-78575000D02*
X140170000Y-75400000D01*
X143980000Y-79210000D02*
X143345000Y-78575000D01*
%TO.N,GPIO18*%
X138900000Y-79210000D02*
X139535000Y-79845000D01*
%TO.N,GPIO11*%
X162395000Y-81115000D02*
X163030000Y-81750000D01*
X161760000Y-81115000D02*
X162395000Y-81115000D01*
X130645000Y-81115000D02*
X161760000Y-81115000D01*
X124930000Y-75400000D02*
X130645000Y-81115000D01*
%TO.N,GPIO15*%
X130010000Y-75400000D02*
X134455000Y-79845000D01*
%TO.N,GPIO23*%
X178930000Y-81140000D02*
X178930000Y-82880000D01*
X174460000Y-76670000D02*
X178930000Y-81140000D01*
X161760000Y-76670000D02*
X174460000Y-76670000D01*
X160490000Y-75400000D02*
X161760000Y-76670000D01*
%TO.N,GPIO22*%
X173825000Y-77305000D02*
X177660000Y-81140000D01*
X157315000Y-77305000D02*
X173825000Y-77305000D01*
X155410000Y-75400000D02*
X156680000Y-76670000D01*
X177660000Y-81140000D02*
X177660000Y-82880000D01*
%TO.N,GPIO21*%
X173190000Y-77940000D02*
X176390000Y-81140000D01*
X176390000Y-81140000D02*
X176390000Y-82880000D01*
%TO.N,GPIO20*%
X172555000Y-78575000D02*
X175120000Y-81140000D01*
X175120000Y-81140000D02*
X175120000Y-82880000D01*
%TO.N,GPIO19*%
X173850000Y-81140000D02*
X173850000Y-82880000D01*
X171920000Y-79210000D02*
X173850000Y-81140000D01*
%TO.N,GPIO18*%
X171285000Y-79845000D02*
X172580000Y-81140000D01*
X135090000Y-75400000D02*
X138900000Y-79210000D01*
X139535000Y-79845000D02*
X171285000Y-79845000D01*
X172580000Y-81140000D02*
X172580000Y-82880000D01*
%TO.N,GPIO19*%
X171920000Y-79210000D02*
X143980000Y-79210000D01*
%TO.N,GPIO21*%
X152870000Y-77940000D02*
X152235000Y-77305000D01*
X173190000Y-77940000D02*
X152870000Y-77940000D01*
%TO.N,GPIO20*%
X148425000Y-78575000D02*
X172555000Y-78575000D01*
X145250000Y-75400000D02*
X147790000Y-77940000D01*
D34*
%TO.N,+3V3*%
X181000000Y-55000000D02*
X177905000Y-51905000D01*
%TO.N,GND*%
X187820000Y-65380000D02*
X187795000Y-65355000D01*
X187795000Y-65355000D02*
X187795000Y-62700000D01*
X187795000Y-62700000D02*
X190335000Y-60160000D01*
X190335000Y-60160000D02*
X190335000Y-57700000D01*
D35*
X108870000Y-69500000D02*
X114770000Y-75400000D01*
X105000000Y-69500000D02*
X108870000Y-69500000D01*
X114770000Y-75400000D02*
X114770000Y-93815000D01*
X114770000Y-93815000D02*
X116040000Y-95085000D01*
X116040000Y-95085000D02*
X119850000Y-95085000D01*
%TD*%
M02*
