%TF.GenerationSoftware,KiCad,Pcbnew,9.0.3*%
%TF.CreationDate,2025-07-21T16:07:52+02:00*%
%TF.ProjectId,lokho1-z,6c6f6b68-6f31-42d7-9a2e-6b696361645f,rev?*%
%TF.SameCoordinates,Original*%
%TF.FileFunction,Legend,Bot*%
%TF.FilePolarity,Positive*%
%FSLAX46Y46*%
G04 Gerber Fmt 4.6, Leading zero omitted, Abs format (unit mm)*
G04 Created by KiCad (PCBNEW 9.0.3) date 2025-07-21 16:07:52*
%MOMM*%
%LPD*%
G01*
G04 APERTURE LIST*
%ADD10C,0.500000*%
%ADD11C,1.000000*%
G04 APERTURE END LIST*
D10*
X179131767Y-124659238D02*
X179131767Y-122659238D01*
X179131767Y-122659238D02*
X178417481Y-122659238D01*
X178417481Y-122659238D02*
X177988910Y-122754476D01*
X177988910Y-122754476D02*
X177703195Y-122944952D01*
X177703195Y-122944952D02*
X177560338Y-123135428D01*
X177560338Y-123135428D02*
X177417481Y-123516380D01*
X177417481Y-123516380D02*
X177417481Y-123802095D01*
X177417481Y-123802095D02*
X177560338Y-124183047D01*
X177560338Y-124183047D02*
X177703195Y-124373523D01*
X177703195Y-124373523D02*
X177988910Y-124564000D01*
X177988910Y-124564000D02*
X178417481Y-124659238D01*
X178417481Y-124659238D02*
X179131767Y-124659238D01*
X176274624Y-124087809D02*
X174846053Y-124087809D01*
X176560338Y-124659238D02*
X175560338Y-122659238D01*
X175560338Y-122659238D02*
X174560338Y-124659238D01*
X173560338Y-124659238D02*
X173560338Y-122659238D01*
X173560338Y-122659238D02*
X171846052Y-124659238D01*
X171846052Y-124659238D02*
X171846052Y-122659238D01*
X168846052Y-122754476D02*
X169131767Y-122659238D01*
X169131767Y-122659238D02*
X169560338Y-122659238D01*
X169560338Y-122659238D02*
X169988909Y-122754476D01*
X169988909Y-122754476D02*
X170274624Y-122944952D01*
X170274624Y-122944952D02*
X170417481Y-123135428D01*
X170417481Y-123135428D02*
X170560338Y-123516380D01*
X170560338Y-123516380D02*
X170560338Y-123802095D01*
X170560338Y-123802095D02*
X170417481Y-124183047D01*
X170417481Y-124183047D02*
X170274624Y-124373523D01*
X170274624Y-124373523D02*
X169988909Y-124564000D01*
X169988909Y-124564000D02*
X169560338Y-124659238D01*
X169560338Y-124659238D02*
X169274624Y-124659238D01*
X169274624Y-124659238D02*
X168846052Y-124564000D01*
X168846052Y-124564000D02*
X168703195Y-124468761D01*
X168703195Y-124468761D02*
X168703195Y-123802095D01*
X168703195Y-123802095D02*
X169274624Y-123802095D01*
X167417481Y-123611619D02*
X166417481Y-123611619D01*
X165988909Y-124659238D02*
X167417481Y-124659238D01*
X167417481Y-124659238D02*
X167417481Y-122659238D01*
X167417481Y-122659238D02*
X165988909Y-122659238D01*
X162988909Y-124659238D02*
X163988909Y-123706857D01*
X164703195Y-124659238D02*
X164703195Y-122659238D01*
X164703195Y-122659238D02*
X163560338Y-122659238D01*
X163560338Y-122659238D02*
X163274623Y-122754476D01*
X163274623Y-122754476D02*
X163131766Y-122849714D01*
X163131766Y-122849714D02*
X162988909Y-123040190D01*
X162988909Y-123040190D02*
X162988909Y-123325904D01*
X162988909Y-123325904D02*
X163131766Y-123516380D01*
X163131766Y-123516380D02*
X163274623Y-123611619D01*
X163274623Y-123611619D02*
X163560338Y-123706857D01*
X163560338Y-123706857D02*
X164703195Y-123706857D01*
X161131766Y-122659238D02*
X160560338Y-122659238D01*
X160560338Y-122659238D02*
X160274623Y-122754476D01*
X160274623Y-122754476D02*
X159988909Y-122944952D01*
X159988909Y-122944952D02*
X159846052Y-123325904D01*
X159846052Y-123325904D02*
X159846052Y-123992571D01*
X159846052Y-123992571D02*
X159988909Y-124373523D01*
X159988909Y-124373523D02*
X160274623Y-124564000D01*
X160274623Y-124564000D02*
X160560338Y-124659238D01*
X160560338Y-124659238D02*
X161131766Y-124659238D01*
X161131766Y-124659238D02*
X161417481Y-124564000D01*
X161417481Y-124564000D02*
X161703195Y-124373523D01*
X161703195Y-124373523D02*
X161846052Y-123992571D01*
X161846052Y-123992571D02*
X161846052Y-123325904D01*
X161846052Y-123325904D02*
X161703195Y-122944952D01*
X161703195Y-122944952D02*
X161417481Y-122754476D01*
X161417481Y-122754476D02*
X161131766Y-122659238D01*
X158560338Y-122659238D02*
X158560338Y-124278285D01*
X158560338Y-124278285D02*
X158417481Y-124468761D01*
X158417481Y-124468761D02*
X158274624Y-124564000D01*
X158274624Y-124564000D02*
X157988909Y-124659238D01*
X157988909Y-124659238D02*
X157417481Y-124659238D01*
X157417481Y-124659238D02*
X157131766Y-124564000D01*
X157131766Y-124564000D02*
X156988909Y-124468761D01*
X156988909Y-124468761D02*
X156846052Y-124278285D01*
X156846052Y-124278285D02*
X156846052Y-122659238D01*
X155560338Y-124564000D02*
X155131767Y-124659238D01*
X155131767Y-124659238D02*
X154417481Y-124659238D01*
X154417481Y-124659238D02*
X154131767Y-124564000D01*
X154131767Y-124564000D02*
X153988909Y-124468761D01*
X153988909Y-124468761D02*
X153846052Y-124278285D01*
X153846052Y-124278285D02*
X153846052Y-124087809D01*
X153846052Y-124087809D02*
X153988909Y-123897333D01*
X153988909Y-123897333D02*
X154131767Y-123802095D01*
X154131767Y-123802095D02*
X154417481Y-123706857D01*
X154417481Y-123706857D02*
X154988909Y-123611619D01*
X154988909Y-123611619D02*
X155274624Y-123516380D01*
X155274624Y-123516380D02*
X155417481Y-123421142D01*
X155417481Y-123421142D02*
X155560338Y-123230666D01*
X155560338Y-123230666D02*
X155560338Y-123040190D01*
X155560338Y-123040190D02*
X155417481Y-122849714D01*
X155417481Y-122849714D02*
X155274624Y-122754476D01*
X155274624Y-122754476D02*
X154988909Y-122659238D01*
X154988909Y-122659238D02*
X154274624Y-122659238D01*
X154274624Y-122659238D02*
X153846052Y-122754476D01*
X150703195Y-122659238D02*
X149703195Y-124659238D01*
X149703195Y-124659238D02*
X148703195Y-122659238D01*
X147131766Y-122659238D02*
X146560338Y-122659238D01*
X146560338Y-122659238D02*
X146274623Y-122754476D01*
X146274623Y-122754476D02*
X145988909Y-122944952D01*
X145988909Y-122944952D02*
X145846052Y-123325904D01*
X145846052Y-123325904D02*
X145846052Y-123992571D01*
X145846052Y-123992571D02*
X145988909Y-124373523D01*
X145988909Y-124373523D02*
X146274623Y-124564000D01*
X146274623Y-124564000D02*
X146560338Y-124659238D01*
X146560338Y-124659238D02*
X147131766Y-124659238D01*
X147131766Y-124659238D02*
X147417481Y-124564000D01*
X147417481Y-124564000D02*
X147703195Y-124373523D01*
X147703195Y-124373523D02*
X147846052Y-123992571D01*
X147846052Y-123992571D02*
X147846052Y-123325904D01*
X147846052Y-123325904D02*
X147703195Y-122944952D01*
X147703195Y-122944952D02*
X147417481Y-122754476D01*
X147417481Y-122754476D02*
X147131766Y-122659238D01*
X143131766Y-124659238D02*
X144560338Y-124659238D01*
X144560338Y-124659238D02*
X144560338Y-122659238D01*
X142560338Y-122659238D02*
X140846053Y-122659238D01*
X141703195Y-124659238D02*
X141703195Y-122659238D01*
X139988910Y-124087809D02*
X138560339Y-124087809D01*
X140274624Y-124659238D02*
X139274624Y-122659238D01*
X139274624Y-122659238D02*
X138274624Y-124659238D01*
X135703195Y-122754476D02*
X135988910Y-122659238D01*
X135988910Y-122659238D02*
X136417481Y-122659238D01*
X136417481Y-122659238D02*
X136846052Y-122754476D01*
X136846052Y-122754476D02*
X137131767Y-122944952D01*
X137131767Y-122944952D02*
X137274624Y-123135428D01*
X137274624Y-123135428D02*
X137417481Y-123516380D01*
X137417481Y-123516380D02*
X137417481Y-123802095D01*
X137417481Y-123802095D02*
X137274624Y-124183047D01*
X137274624Y-124183047D02*
X137131767Y-124373523D01*
X137131767Y-124373523D02*
X136846052Y-124564000D01*
X136846052Y-124564000D02*
X136417481Y-124659238D01*
X136417481Y-124659238D02*
X136131767Y-124659238D01*
X136131767Y-124659238D02*
X135703195Y-124564000D01*
X135703195Y-124564000D02*
X135560338Y-124468761D01*
X135560338Y-124468761D02*
X135560338Y-123802095D01*
X135560338Y-123802095D02*
X136131767Y-123802095D01*
X134274624Y-123611619D02*
X133274624Y-123611619D01*
X132846052Y-124659238D02*
X134274624Y-124659238D01*
X134274624Y-124659238D02*
X134274624Y-122659238D01*
X134274624Y-122659238D02*
X132846052Y-122659238D01*
X129274624Y-124659238D02*
X129274624Y-122659238D01*
X129274624Y-122659238D02*
X128131767Y-122659238D01*
X128131767Y-122659238D02*
X127846052Y-122754476D01*
X127846052Y-122754476D02*
X127703195Y-122849714D01*
X127703195Y-122849714D02*
X127560338Y-123040190D01*
X127560338Y-123040190D02*
X127560338Y-123325904D01*
X127560338Y-123325904D02*
X127703195Y-123516380D01*
X127703195Y-123516380D02*
X127846052Y-123611619D01*
X127846052Y-123611619D02*
X128131767Y-123706857D01*
X128131767Y-123706857D02*
X129274624Y-123706857D01*
X126417481Y-124087809D02*
X124988910Y-124087809D01*
X126703195Y-124659238D02*
X125703195Y-122659238D01*
X125703195Y-122659238D02*
X124703195Y-124659238D01*
X121988909Y-124659238D02*
X122988909Y-123706857D01*
X123703195Y-124659238D02*
X123703195Y-122659238D01*
X123703195Y-122659238D02*
X122560338Y-122659238D01*
X122560338Y-122659238D02*
X122274623Y-122754476D01*
X122274623Y-122754476D02*
X122131766Y-122849714D01*
X122131766Y-122849714D02*
X121988909Y-123040190D01*
X121988909Y-123040190D02*
X121988909Y-123325904D01*
X121988909Y-123325904D02*
X122131766Y-123516380D01*
X122131766Y-123516380D02*
X122274623Y-123611619D01*
X122274623Y-123611619D02*
X122560338Y-123706857D01*
X122560338Y-123706857D02*
X123703195Y-123706857D01*
X121131766Y-122659238D02*
X119417481Y-122659238D01*
X120274623Y-124659238D02*
X120274623Y-122659238D01*
X115560338Y-122659238D02*
X114988910Y-122659238D01*
X114988910Y-122659238D02*
X114703195Y-122754476D01*
X114703195Y-122754476D02*
X114417481Y-122944952D01*
X114417481Y-122944952D02*
X114274624Y-123325904D01*
X114274624Y-123325904D02*
X114274624Y-123992571D01*
X114274624Y-123992571D02*
X114417481Y-124373523D01*
X114417481Y-124373523D02*
X114703195Y-124564000D01*
X114703195Y-124564000D02*
X114988910Y-124659238D01*
X114988910Y-124659238D02*
X115560338Y-124659238D01*
X115560338Y-124659238D02*
X115846053Y-124564000D01*
X115846053Y-124564000D02*
X116131767Y-124373523D01*
X116131767Y-124373523D02*
X116274624Y-123992571D01*
X116274624Y-123992571D02*
X116274624Y-123325904D01*
X116274624Y-123325904D02*
X116131767Y-122944952D01*
X116131767Y-122944952D02*
X115846053Y-122754476D01*
X115846053Y-122754476D02*
X115560338Y-122659238D01*
X111988910Y-123611619D02*
X112988910Y-123611619D01*
X112988910Y-124659238D02*
X112988910Y-122659238D01*
X112988910Y-122659238D02*
X111560338Y-122659238D01*
X108560338Y-122659238D02*
X106846053Y-122659238D01*
X107703195Y-124659238D02*
X107703195Y-122659238D01*
X105846053Y-124659238D02*
X105846053Y-122659238D01*
X105846053Y-123611619D02*
X104131767Y-123611619D01*
X104131767Y-124659238D02*
X104131767Y-122659238D01*
X102703196Y-123611619D02*
X101703196Y-123611619D01*
X101274624Y-124659238D02*
X102703196Y-124659238D01*
X102703196Y-124659238D02*
X102703196Y-122659238D01*
X102703196Y-122659238D02*
X101274624Y-122659238D01*
X96703196Y-123611619D02*
X96274624Y-123706857D01*
X96274624Y-123706857D02*
X96131767Y-123802095D01*
X96131767Y-123802095D02*
X95988910Y-123992571D01*
X95988910Y-123992571D02*
X95988910Y-124278285D01*
X95988910Y-124278285D02*
X96131767Y-124468761D01*
X96131767Y-124468761D02*
X96274624Y-124564000D01*
X96274624Y-124564000D02*
X96560339Y-124659238D01*
X96560339Y-124659238D02*
X97703196Y-124659238D01*
X97703196Y-124659238D02*
X97703196Y-122659238D01*
X97703196Y-122659238D02*
X96703196Y-122659238D01*
X96703196Y-122659238D02*
X96417482Y-122754476D01*
X96417482Y-122754476D02*
X96274624Y-122849714D01*
X96274624Y-122849714D02*
X96131767Y-123040190D01*
X96131767Y-123040190D02*
X96131767Y-123230666D01*
X96131767Y-123230666D02*
X96274624Y-123421142D01*
X96274624Y-123421142D02*
X96417482Y-123516380D01*
X96417482Y-123516380D02*
X96703196Y-123611619D01*
X96703196Y-123611619D02*
X97703196Y-123611619D01*
X94131767Y-122659238D02*
X93560339Y-122659238D01*
X93560339Y-122659238D02*
X93274624Y-122754476D01*
X93274624Y-122754476D02*
X92988910Y-122944952D01*
X92988910Y-122944952D02*
X92846053Y-123325904D01*
X92846053Y-123325904D02*
X92846053Y-123992571D01*
X92846053Y-123992571D02*
X92988910Y-124373523D01*
X92988910Y-124373523D02*
X93274624Y-124564000D01*
X93274624Y-124564000D02*
X93560339Y-124659238D01*
X93560339Y-124659238D02*
X94131767Y-124659238D01*
X94131767Y-124659238D02*
X94417482Y-124564000D01*
X94417482Y-124564000D02*
X94703196Y-124373523D01*
X94703196Y-124373523D02*
X94846053Y-123992571D01*
X94846053Y-123992571D02*
X94846053Y-123325904D01*
X94846053Y-123325904D02*
X94703196Y-122944952D01*
X94703196Y-122944952D02*
X94417482Y-122754476D01*
X94417482Y-122754476D02*
X94131767Y-122659238D01*
X91703196Y-124087809D02*
X90274625Y-124087809D01*
X91988910Y-124659238D02*
X90988910Y-122659238D01*
X90988910Y-122659238D02*
X89988910Y-124659238D01*
X87274624Y-124659238D02*
X88274624Y-123706857D01*
X88988910Y-124659238D02*
X88988910Y-122659238D01*
X88988910Y-122659238D02*
X87846053Y-122659238D01*
X87846053Y-122659238D02*
X87560338Y-122754476D01*
X87560338Y-122754476D02*
X87417481Y-122849714D01*
X87417481Y-122849714D02*
X87274624Y-123040190D01*
X87274624Y-123040190D02*
X87274624Y-123325904D01*
X87274624Y-123325904D02*
X87417481Y-123516380D01*
X87417481Y-123516380D02*
X87560338Y-123611619D01*
X87560338Y-123611619D02*
X87846053Y-123706857D01*
X87846053Y-123706857D02*
X88988910Y-123706857D01*
X85988910Y-124659238D02*
X85988910Y-122659238D01*
X85988910Y-122659238D02*
X85274624Y-122659238D01*
X85274624Y-122659238D02*
X84846053Y-122754476D01*
X84846053Y-122754476D02*
X84560338Y-122944952D01*
X84560338Y-122944952D02*
X84417481Y-123135428D01*
X84417481Y-123135428D02*
X84274624Y-123516380D01*
X84274624Y-123516380D02*
X84274624Y-123802095D01*
X84274624Y-123802095D02*
X84417481Y-124183047D01*
X84417481Y-124183047D02*
X84560338Y-124373523D01*
X84560338Y-124373523D02*
X84846053Y-124564000D01*
X84846053Y-124564000D02*
X85274624Y-124659238D01*
X85274624Y-124659238D02*
X85988910Y-124659238D01*
D11*
X63970000Y-103340000D02*
X41110000Y-103340000D01*
X80480000Y-119850000D02*
X63970000Y-103340000D01*
X198590000Y-119850000D02*
X80480000Y-119850000D01*
M02*
